<svg width="57" height="60" viewBox="0 0 57 60" fill="none" xmlns="http://www.w3.org/2000/svg">
<path d="M38.6656 38.0494L29.7593 28.6744C29.5944 28.4994 29.3982 28.3606 29.1821 28.2658C28.966 28.1711 28.7341 28.1223 28.5 28.1223C28.2659 28.1223 28.034 28.1711 27.8179 28.2658C27.6018 28.3606 27.4056 28.4994 27.2407 28.6744L3.5625 53.5988L6.08119 56.25L28.5 32.6513L34.8876 39.375L24.9375 49.8488L27.4562 52.5L31.5388 48.2025L38.6656 40.7006C38.8316 40.5269 38.9633 40.3203 39.0532 40.0928C39.1431 39.8654 39.1893 39.6214 39.1893 39.375C39.1893 39.1286 39.1431 38.8847 39.0532 38.6572C38.9633 38.4297 38.8316 38.2231 38.6656 38.0494Z" fill="black"/>
<path d="M50.9188 16.875L40.9688 27.3487L30.2795 16.095C29.9468 15.7456 29.5517 15.469 29.1169 15.2811C28.6822 15.0932 28.2165 14.9976 27.7465 15C26.8066 15.0027 25.9058 15.3963 25.2403 16.095L14.25 27.675L16.7687 30.3262L27.759 18.7481L39.7112 31.3256C39.8762 31.5001 40.0723 31.6385 40.2883 31.7329C40.5042 31.8274 40.7358 31.876 40.9696 31.876C41.2035 31.876 41.4351 31.8274 41.651 31.7329C41.867 31.6385 42.0631 31.5001 42.2281 31.3256L53.4375 19.5262L50.9188 16.875Z" fill="black"/>
<path d="M40.0781 16.875C36.6403 16.875 33.8438 13.9312 33.8438 10.3125C33.8438 6.69375 36.6403 3.75 40.0781 3.75C43.5159 3.75 46.3125 6.69375 46.3125 10.3125C46.3125 13.9312 43.5159 16.875 40.0781 16.875ZM40.0781 7.5C38.605 7.5 37.4062 8.76187 37.4062 10.3125C37.4062 11.8631 38.605 13.125 40.0781 13.125C41.5512 13.125 42.75 11.8631 42.75 10.3125C42.75 8.76187 41.5512 7.5 40.0781 7.5Z" fill="black"/>
</svg>
