<svg width="64" height="64" viewBox="0 0 64 64" fill="none" xmlns="http://www.w3.org/2000/svg">
<path d="M41.219 14.918C39.99 14.373 37.627 13.293 36.049 13.293C34.662 13.293 32.026 14.328 30.795 14.898C29.703 15.402 29.541 15.841 29.754 16.527C29.973 17.232 30.801 17.629 31.588 17.451C31.588 17.451 34.787 15.939 35.961 15.939C37.156 15.935 40.424 17.47 40.424 17.47C41.211 17.652 42.041 17.247 42.262 16.546C42.473 15.859 42.311 15.404 41.219 14.918ZM47.104 17.451C47.104 17.451 50.303 15.941 51.477 15.939C52.674 15.939 55.942 17.47 55.942 17.47C56.729 17.652 57.559 17.247 57.776 16.546C57.991 15.858 57.827 15.403 56.735 14.917C55.51 14.372 53.143 13.292 51.569 13.29C50.176 13.292 47.546 14.327 46.313 14.897C45.219 15.403 45.057 15.84 45.27 16.524C45.49 17.23 46.316 17.631 47.104 17.451ZM26.371 46.23C22.252 47.728 18.074 46.628 18.652 48.222C19.232 49.816 24.355 53.503 28.472 52.005C32.589 50.505 34.144 44.388 33.564 42.794C32.982 41.201 30.488 44.732 26.371 46.23ZM20.801 36.096C20.766 35.401 20.469 35.039 19.315 34.961C18.022 34.869 15.516 34.67 14.085 35.191C12.823 35.65 10.772 37.462 9.841 38.388C9.019 39.208 9.013 39.659 9.435 40.212C9.865 40.78 10.751 40.866 11.406 40.444C11.406 40.444 13.814 38.014 14.879 37.624C15.965 37.228 19.44 37.542 19.44 37.542C20.215 37.447 20.838 36.807 20.801 36.096ZM33.414 29.83C32.119 29.738 29.611 29.539 28.182 30.06C26.918 30.519 24.868 32.331 23.938 33.255C23.114 34.077 23.112 34.528 23.53 35.083C23.962 35.649 24.846 35.737 25.505 35.313C25.505 35.313 27.907 32.883 28.976 32.495C30.062 32.097 33.539 32.411 33.539 32.411C34.314 32.315 34.934 31.675 34.898 30.964C34.863 30.268 34.566 29.908 33.414 29.83Z" fill="black"/>
<path d="M57.381 49.066C56.051 49.349 55.111 50.248 54.315 51.084C52.727 52.809 51.547 54.701 50.061 56.174C48.625 57.676 46.952 58.791 44.895 59.022C42.932 59.297 40.834 58.549 39.653 56.629C39.096 55.693 38.753 54.563 38.809 53.457C38.8448 52.3664 39.2356 51.3173 39.922 50.469C39.94 50.448 39.962 50.432 39.98 50.41C40.5272 51.073 41.237 51.5829 42.04 51.89C43.048 52.298 44.038 52.435 45.009 52.585C46.923 52.825 48.909 53.005 50.878 52.632C51.8715 52.4479 52.8187 52.0689 53.665 51.517C54.5042 50.9392 55.2178 50.1977 55.763 49.337C56.872 47.626 57.322 45.546 57.242 43.507C57.1453 41.434 56.5925 39.4079 55.623 37.573C55.135 36.653 54.518 35.749 53.777 34.977C58.089 29.324 62.003 22 62.002 13.784C62.002 9.708 61.559 5.811 60.748 2.227C56.34 5.135 50.303 6.928 43.639 6.928C36.803 6.928 30.627 5.039 26.196 2C25.518 4.924 25.098 8.065 24.953 11.339C24.93 11.339 24.907 11.332 24.884 11.332C24.208 11.332 23.597 11.605 23.153 12.049C21.892 11.2452 20.4188 10.8383 18.924 10.881C17.735 10.928 16.348 11.361 15.485 12.549C15.053 13.119 14.84 13.83 14.799 14.49C14.742 15.158 14.873 15.787 15.043 16.365C15.227 16.941 15.479 17.474 15.766 17.969C16.061 18.455 16.297 18.848 16.491 19.319C16.867 20.207 17.044 21.2 16.894 22.176C16.2392 21.9861 15.6233 21.6813 15.075 21.276C13.682 20.282 12.552 18.932 11.956 17.405C11.364 15.885 11.237 14.313 11.604 12.827C11.983 11.343 12.819 9.983 13.838 8.77C14.8822 7.53501 16.1229 6.48055 17.51 5.649C18.912 4.833 20.471 4.172 22.205 4.211L22.25 4.016C20.549 3.319 18.549 3.592 16.842 4.246C15.104 4.904 13.537 5.992 12.252 7.369C10.981 8.754 10.027 10.514 9.71899 12.449C9.55651 13.413 9.57244 14.3987 9.76599 15.357C9.97752 16.2894 10.3611 17.1742 10.897 17.966C11.94 19.517 13.329 20.691 14.706 21.773C15.322 22.229 15.948 22.694 16.679 23.055C16.4323 23.7638 16.0258 24.4064 15.491 24.933C14.774 25.656 13.817 26.097 12.874 26.259C10.911 26.564 9.22899 25.47 8.31299 23.849C7.31499 22.185 7.12899 20.261 7.33799 18.275C7.49799 16.271 8.11499 14.234 8.39099 12C8.50799 10.896 8.58799 9.648 8.03399 8.49C7.76531 7.9307 7.33786 7.4629 6.80499 7.145C6.30499 6.831 5.75799 6.659 5.21699 6.559L5.15199 6.748C6.10099 7.246 6.89199 7.965 7.07999 8.857C7.29299 9.738 7.09599 10.724 6.84199 11.712C6.29899 13.692 5.51599 15.759 5.21499 18.04C5.08799 19.177 5.06699 20.376 5.31999 21.556C5.56643 22.7357 6.04135 23.8557 6.71799 24.853C7.38199 25.859 8.33499 26.761 9.51499 27.232C10.687 27.72 12.009 27.693 13.132 27.322C15.093 26.666 16.54 25.116 17.236 23.298C18.078 23.621 19.135 23.7 20.059 23.305C21.059 22.899 21.789 22.159 22.344 21.397C22.891 20.62 23.324 19.811 23.668 18.977C24.04 18.069 24.336 17.144 24.563 16.205C24.668 16.219 24.772 16.237 24.881 16.237C24.921 16.237 24.959 16.227 24.999 16.225C25.227 18.61 25.777 20.921 26.549 23.13C24.3494 24.5718 21.9904 25.7543 19.519 26.654C15.687 28.048 11.848 28.709 8.28599 28.709C6.05799 28.709 3.93999 28.451 1.99899 27.95C2.43699 31.549 3.33399 35.325 4.71299 39.114C10.55 55.149 32.183 62 32.183 62C32.183 62 36.482 55.225 38.743 46.362C38.743 46.372 38.74 46.38 38.739 46.388C38.663 47.398 38.911 48.519 39.456 49.603C39.483 49.659 39.525 49.705 39.555 49.758C39.492 49.84 39.419 49.915 39.359 49.999C37.98 51.911 37.568 54.604 38.613 57.103C39.133 58.333 40.072 59.509 41.314 60.212C42.546 60.931 43.962 61.167 45.248 61.081C46.5204 61.0163 47.7654 60.6877 48.904 60.116C50.029 59.555 50.974 58.741 51.791 57.874C53.398 56.097 54.482 54.04 55.67 52.247C56.277 51.37 56.922 50.542 57.781 50.143C58.633 49.715 59.781 49.93 60.871 50.432L60.975 50.248C60.502 49.84 59.969 49.477 59.352 49.246C58.742 49.008 58.033 48.92 57.381 49.066ZM22.26 18.277C21.42 19.715 20.477 21.107 19.354 21.867C18.85 22.202 18.23 22.364 17.538 22.297C17.7788 21.2091 17.7843 20.0822 17.554 18.992C17.437 18.433 17.224 17.846 17.046 17.367C16.8768 16.9064 16.7454 16.4329 16.653 15.951C16.473 15.021 16.53 14.166 16.93 13.568C17.323 12.959 18.147 12.566 19.067 12.423C20.219 12.259 21.451 12.397 22.642 12.797C22.509 13.1 22.432 13.432 22.432 13.784C22.432 14.664 22.9 15.429 23.595 15.861C23.15 16.683 22.718 17.494 22.26 18.277ZM41.176 44.072C41.193 43.978 41.215 43.884 41.233 43.79C42.578 44.999 43.442 45.668 43.442 45.668C43.442 45.668 44.74 44.667 46.641 42.881C46.89 43.512 46.992 44.136 46.854 44.649C46.666 45.395 46.024 46.014 45.149 46.473C44.715 46.703 44.239 46.907 43.731 47.069C43.217 47.231 42.594 47.436 42.063 47.706C41.673 47.9059 41.3013 48.1394 40.952 48.404C40.746 47.086 40.904 45.567 41.176 44.072ZM41.703 41.501C41.783 41.127 41.865 40.755 41.943 40.376C42.205 40.285 42.458 40.16 42.681 39.975C42.962 39.742 43.173 39.453 43.318 39.134C44.1624 39.6843 44.9201 40.3573 45.566 41.131C44.8732 41.7941 44.1643 42.4403 43.44 43.069C42.8509 42.5577 42.2718 42.0349 41.703 41.501ZM54.07 38.125C54.64 39.848 54.935 41.627 54.925 43.346C54.919 45.061 54.654 46.744 53.921 48.166C53.175 49.584 51.958 50.686 50.39 51.385C48.812 52.086 46.915 52.24 45.052 51.918C44.13 51.772 43.212 51.449 42.472 50.949C41.9037 50.5757 41.4604 50.0407 41.199 49.413C41.6314 49.1681 42.0935 48.9799 42.574 48.853C43.092 48.708 43.578 48.654 44.179 48.591C44.7973 48.5164 45.405 48.3708 45.99 48.157C46.576 47.923 47.172 47.62 47.666 47.128C48.164 46.651 48.578 45.995 48.723 45.237C48.994 43.929 48.559 42.656 47.919 41.645C49.598 39.98 51.17 38.361 53.094 35.862C53.492 36.594 53.805 37.359 54.07 38.125ZM31.29 59.551C26.431 57.698 11.169 50.99 6.59799 38.429C5.65047 35.8376 4.9193 33.1721 4.41199 30.46C5.66499 30.629 6.95999 30.714 8.28699 30.714C12.171 30.714 16.292 29.962 20.206 28.538C25.386 26.651 29.929 23.721 33.27 20.147C34.5873 22.5026 35.711 24.9614 36.63 27.499C41.194 40.035 33.816 55.005 31.29 59.551ZM38.698 27.375C38.635 27.187 38.582 26.999 38.514 26.813C37.162 23.101 35.465 19.7 33.539 16.705C32.149 18.577 30.356 20.342 28.261 21.928C27.526 19.7223 27.0829 17.4298 26.943 15.109C27.2046 14.7056 27.3411 14.2339 27.3354 13.7532C27.3297 13.2724 27.182 12.8041 26.911 12.407C26.975 9.941 27.198 7.522 27.597 5.18C32.173 7.611 37.759 8.928 43.639 8.928C49.351 8.928 54.811 7.677 59.323 5.367C59.772 8.087 60 10.908 60 13.785C60.002 24.921 51.883 34.841 46.618 40.103C45.7341 39.2646 44.6894 38.6142 43.547 38.191C43.5748 37.4647 43.3301 36.7542 42.861 36.199C42.135 35.325 41.035 34.973 40.071 35.207C40.0383 34.2216 39.9569 33.2384 39.827 32.261C40.919 32.003 42.141 31.791 43.441 31.791C47.976 31.791 51.648 34.342 51.648 32.584C51.648 30.83 47.974 25.436 43.443 25.436C41.672 25.436 40.039 26.267 38.698 27.375Z" fill="black"/>
</svg>
