<svg width="70" height="70" viewBox="0 0 70 70" fill="none" xmlns="http://www.w3.org/2000/svg">
<path d="M35 6.5625C42.5421 6.5625 49.7753 9.55859 55.1083 14.8917C60.4414 20.2247 63.4375 27.4579 63.4375 35C63.4375 42.5421 60.4414 49.7753 55.1083 55.1083C49.7753 60.4414 42.5421 63.4375 35 63.4375C27.4579 63.4375 20.2247 60.4414 14.8917 55.1083C9.55859 49.7753 6.5625 42.5421 6.5625 35C6.5625 27.4579 9.55859 20.2247 14.8917 14.8917C20.2247 9.55859 27.4579 6.5625 35 6.5625ZM29.9075 11.4756L35 14.875L40.0925 11.48C36.7364 10.7533 33.2636 10.7533 29.9075 11.48M24.6881 13.2562C21.4945 14.7729 18.6743 16.9747 16.4281 19.705L19.2587 28.91L23.66 30.3756L32.8125 23.415V18.6725L24.6881 13.2562ZM13.335 24.5219C12.1286 27.0157 11.3619 29.6991 11.0687 32.4538L14.9406 29.7456L13.335 24.5219ZM11.095 37.7781C11.5325 41.5625 12.845 45.0844 14.8269 48.125H23.1569L25.935 45.3469L22.3344 34.5406L17.8544 33.0487L11.095 37.7781ZM18.4887 52.5C20.2519 54.1712 22.2731 55.5756 24.4825 56.6475L22.6494 52.5H18.4887ZM30.1263 58.5681C33.3414 59.2331 36.6586 59.2331 39.8738 58.5681L43.33 50.7981L40.6569 48.125H29.3431L26.6744 50.7937L30.1263 58.5681ZM45.5131 56.6475C47.7131 55.5781 49.7372 54.1796 51.5156 52.5H47.3594L45.5131 56.6475ZM55.1687 48.125C57.0938 45.1763 58.3888 41.7812 58.8613 38.1281L52.1063 33.0619L47.6656 34.5406L44.065 45.3469L46.8431 48.125H55.1687ZM58.9575 32.7337C58.6877 29.8578 57.9022 27.0539 56.6388 24.4563L55.0331 29.7937L58.9575 32.7337ZM53.515 19.6306C51.2779 16.9323 48.4782 14.7553 45.3119 13.2519L37.1875 18.6725V23.415L46.34 30.3713L50.7325 28.91L53.515 19.6306ZM26.635 33.6L30.0125 43.75H39.9875L43.365 33.6044L35 27.2475L26.635 33.6Z" fill="black"/>
</svg>
