<svg width="54" height="54" viewBox="0 0 54 54" fill="none" xmlns="http://www.w3.org/2000/svg">
<path d="M23.088 16.388C20.3615 18.4544 17.7819 20.7078 15.368 23.132C3.992 34.508 -1.768 47.184 2.496 51.452C6.76 55.716 19.44 49.952 30.812 38.58C33.2363 36.1648 35.4898 33.5839 37.556 30.856" stroke="black" stroke-linecap="round" stroke-linejoin="round"/>
<path d="M37.556 30.856C44.264 39.76 46.996 48.136 43.684 51.448C39.416 55.716 26.74 49.952 15.364 38.58C3.99599 27.2 -1.76401 14.528 2.49999 10.26C5.81199 6.952 14.188 9.684 23.092 16.388" stroke="black" stroke-linecap="round" stroke-linejoin="round"/>
<path d="M21.088 30.856C21.088 31.3864 21.2987 31.8951 21.6738 32.2702C22.0489 32.6453 22.5576 32.856 23.088 32.856C23.6184 32.856 24.1271 32.6453 24.5022 32.2702C24.8773 31.8951 25.088 31.3864 25.088 30.856C25.088 30.3256 24.8773 29.8169 24.5022 29.4418C24.1271 29.0667 23.6184 28.856 23.088 28.856C22.5576 28.856 22.0489 29.0667 21.6738 29.4418C21.2987 29.8169 21.088 30.3256 21.088 30.856ZM31.128 13.44C29.868 13.22 29.868 11.416 31.128 11.2C33.3534 10.8129 35.413 9.77182 37.0444 8.20954C38.6758 6.64726 39.805 4.63454 40.288 2.428L40.36 2.08C40.632 0.84 42.4 0.832 42.68 2.068L42.776 2.472C43.2771 4.66877 44.4162 6.66848 46.0502 8.21993C47.6842 9.77137 49.7402 10.8054 51.96 11.192C53.224 11.412 53.224 13.228 51.96 13.444C49.7402 13.8306 47.6842 14.8646 46.0502 16.4161C44.4162 17.9675 43.2771 19.9672 42.776 22.164L42.68 22.568C42.4 23.808 40.632 23.8 40.36 22.56L40.28 22.212C39.797 20.0055 38.6678 17.9927 37.0364 16.4305C35.405 14.8682 33.3454 13.8271 31.12 13.44H31.128Z" stroke="black" stroke-linecap="round" stroke-linejoin="round"/>
</svg>
