<svg width="56" height="56" viewBox="0 0 56 56" fill="none" xmlns="http://www.w3.org/2000/svg">
<path d="M4.96 26.16L50.96 5.24M50.96 5.24L42.36 2M50.96 5.24L47.76 13.84M53 54H43V26C43 25.4696 43.2107 24.9609 43.5858 24.5858C43.9609 24.2107 44.4696 24 45 24H51C51.5304 24 52.0391 24.2107 52.4142 24.5858C52.7893 24.9609 53 25.4696 53 26V54ZM33 54H23V32C23 31.4696 23.2107 30.9609 23.5858 30.5858C23.9609 30.2107 24.4696 30 25 30H31C31.5304 30 32.0391 30.2107 32.4142 30.5858C32.7893 30.9609 33 31.4696 33 32V54ZM13 54H3V38C3 37.4696 3.21071 36.9609 3.58579 36.5858C3.96086 36.2107 4.46957 36 5 36H11C11.5304 36 12.0391 36.2107 12.4142 36.5858C12.7893 36.9609 13 37.4696 13 38V54Z" stroke="black" stroke-linecap="round" stroke-linejoin="round"/>
</svg>
