<svg width="56" height="56" viewBox="0 0 56 56" fill="none" xmlns="http://www.w3.org/2000/svg">
    <g clip-path="url(#clip0_25_41)">
        <path
            d="M22.704 1.33334C12.6293 1.33334 7.59198 1.33334 4.46398 4.45867C1.33598 7.584 1.33331 12.6107 1.33331 22.6667C1.33331 32.7227 1.33331 37.752 4.46398 40.8747C7.59465 43.9973 12.6293 44 22.704 44H33.3893C43.464 44 48.5013 44 51.6293 40.8747C53.7893 38.72 54.4586 35.6587 54.6666 30.6667M28 44V54.6667M17.3333 54.6667H38.6666M25.3333 36H30.6666"
            stroke="black" stroke-width="1.5" stroke-linecap="round" stroke-linejoin="round" />
        <path
            d="M37.3333 22.6667V28M45.3333 22.6667V28M37.3333 1.33334V6.66667M45.3333 1.33334V6.66667M33.3333 10.6667H28M33.3333 18.6667H28M54.6667 10.6667H49.3333M54.6667 18.6667H49.3333M44 6.66667H38.6667C36.152 6.66667 34.896 6.66667 34.1147 7.448C33.3333 8.22934 33.3333 9.48534 33.3333 12V17.3333C33.3333 19.848 33.3333 21.104 34.1147 21.8853C34.896 22.6667 36.152 22.6667 38.6667 22.6667H44C46.5147 22.6667 47.7707 22.6667 48.552 21.8853C49.3333 21.104 49.3333 19.848 49.3333 17.3333V12C49.3333 9.48534 49.3333 8.22934 48.552 7.448C47.7707 6.66667 46.5147 6.66667 44 6.66667Z"
            stroke="black" stroke-width="1.5" stroke-linecap="round" stroke-linejoin="round" />
    </g>
    <defs>
        <clipPath id="clip0_25_41">
            <rect width="56" height="56" fill="white" />
        </clipPath>
    </defs>
</svg>